<svg xmlns="http://www.w3.org/2000/svg" width="1200" height="630" viewBox="0 0 1200 630"><defs><linearGradient id="bg" x1="0" y1="0" x2="0" y2="1"><stop stop-color="#f7faff"/><stop offset="1" stop-color="#edf4ff"/></linearGradient><filter id="sh"><feDropShadow dx="8" dy="12" stdDeviation="14" flood-opacity=".12"/></filter></defs><rect width="1200" height="630" fill="url(#bg)"/><rect x="58" y="46" width="210" height="48" rx="18" fill="#e4eeff"/><text x="78" y="80" font-family="Arial,'Noto Sans JP',sans-serif" font-size="26" font-weight="700" fill="#2365d2">2026年8月 新機能</text><text x="58" y="190" font-family="Arial,'Noto Sans JP',sans-serif" font-size="58" font-weight="700" fill="#0f2a53">Googleカレンダー</text><text x="58" y="270" font-family="Arial,'Noto Sans JP',sans-serif" font-size="56" font-weight="700" fill="#111c2d">会議参加が</text><text x="58" y="355" font-family="Arial,'Noto Sans JP',sans-serif" font-size="68" font-weight="700" fill="#2365d2">ワンタップ</text><g font-family="Arial,sans-serif" font-size="24" font-weight="700" fill="#fff"><rect x="58" y="397" width="118" height="46" rx="23" fill="#715cc3"/><text x="80" y="428">Teams</text><rect x="190" y="397" width="102" height="46" rx="23" fill="#2c79ed"/><text x="212" y="428">Zoom</text><rect x="306" y="397" width="118" height="46" rx="23" fill="#109a80"/><text x="328" y="428">Webex</text></g><text x="58" y="510" font-family="Arial,'Noto Sans JP',sans-serif" font-size="25" fill="#56677e">URLを探さず「参加」ボタンから直接入れる</text><text x="58" y="582" font-family="Arial,'Noto Sans JP',sans-serif" font-size="24" font-weight="700" fill="#0f2a53">仕事ヘルプ</text><g filter="url(#sh)"><rect x="650" y="50" width="478" height="500" rx="30" fill="#fff" stroke="#dce4f0" stroke-width="2"/></g><g><rect x="690" y="85" width="74" height="74" rx="16" fill="#4285f4"/><rect x="690" y="85" width="74" height="19" rx="16" fill="#ea4335"/><polygon points="690,139 710,159 690,159" fill="#34a853"/><polygon points="764,139 744,159 764,159" fill="#fbbc05"/><text x="712" y="141" font-family="Arial,sans-serif" font-size="29" font-weight="700" fill="#fff">31</text><text x="785" y="112" font-family="Arial,sans-serif" font-size="28" font-weight="700" fill="#111c2d">Google Calendar</text><text x="785" y="142" font-family="Arial,'Noto Sans JP',sans-serif" font-size="19" fill="#56677e">外部会議リンクを自動認識</text></g><rect x="687" y="185" width="403" height="303" rx="24" fill="#f7faff" stroke="#e1e8f2" stroke-width="2"/><text x="716" y="235" font-family="Arial,sans-serif" font-size="22" font-weight="700" fill="#56677e">10:00</text><text x="790" y="232" font-family="Arial,'Noto Sans JP',sans-serif" font-size="28" font-weight="700" fill="#111c2d">週次オンライン会議</text><line x1="716" y1="257" x2="1062" y2="257" stroke="#dce4ee" stroke-width="2"/><g font-family="Arial,sans-serif" font-size="22" fill="#111c2d"><circle cx="732" cy="296" r="14" fill="#715cc3"/><text x="761" y="304">Microsoft Teams</text><circle cx="732" cy="346" r="14" fill="#2c79ed"/><text x="761" y="354">Zoom</text><circle cx="732" cy="396" r="14" fill="#109a80"/><text x="761" y="404">Cisco Webex</text></g><rect x="715" y="427" width="345" height="61" rx="18" fill="#2365d2"/><text x="768" y="466" font-family="Arial,'Noto Sans JP',sans-serif" font-size="27" font-weight="700" fill="#fff">ビデオ通話に参加</text><polygon points="1043,500 1075,533 1058,536 1066,553 1053,559 1045,539 1030,551" fill="#202d42"/></svg>