<svg xmlns="http://www.w3.org/2000/svg" width="1200" height="630"><defs><linearGradient id="bg" x1="0" x2="1"><stop stop-color="#08111f"/><stop offset="1" stop-color="#102a46"/></linearGradient></defs><rect width="1200" height="630" rx="28" fill="url(#bg)"/><rect x="42" y="42" width="1116" height="546" rx="24" fill="#0b1526" stroke="#1f8b4c" stroke-width="4"/><rect x="72" y="72" width="335" height="80" rx="18" fill="#107c41"/><text x="100" y="127" font-family="Arial,'Noto Sans JP',sans-serif" font-size="52" font-weight="700" fill="white">Excel VBAで作る!</text><text x="76" y="235" font-family="Arial,'Noto Sans JP',sans-serif" font-size="72" font-weight="800" fill="#ffd91a">パックマン風</text><text x="76" y="315" font-family="Arial,'Noto Sans JP',sans-serif" font-size="68" font-weight="800" fill="white">ゲームの作り方</text><rect x="76" y="354" width="390" height="72" rx="18" fill="#ffd91a"/><text x="112" y="404" font-family="Arial,'Noto Sans JP',sans-serif" font-size="38" font-weight="700" fill="#111">セルだけで遊べる</text><text x="80" y="472" font-family="Arial,'Noto Sans JP',sans-serif" font-size="30" fill="#dbe9f7">矢印キー移動 / ドット取得 / 敵 / スコア</text><text x="80" y="520" font-family="Arial,'Noto Sans JP',sans-serif" font-size="28" fill="#9fc9b3">完成VBAコード付き</text><g transform="translate(535 95)"><rect width="555" height="410" rx="18" fill="#05080d" stroke="#5aa8ff" stroke-width="3"/><g fill="#126bd6"><rect x="30" y="28" width="495" height="20"/><rect x="30" y="362" width="495" height="20"/><rect x="30" y="48" width="20" height="314"/><rect x="505" y="48" width="20" height="314"/><rect x="95" y="90" width="280" height="20"/><rect x="95" y="110" width="20" height="90"/><rect x="180" y="165" width="260" height="20"/><rect x="420" y="110" width="20" height="130"/><rect x="95" y="255" width="300" height="20"/><rect x="250" y="275" width="20" height="55"/></g><g fill="#ffd91a"><circle cx="105" cy="70" r="8"/><circle cx="150" cy="70" r="8"/><circle cx="195" cy="70" r="8"/><circle cx="240" cy="70" r="8"/><circle cx="285" cy="70" r="8"/><circle cx="330" cy="70" r="8"/><circle cx="375" cy="70" r="8"/><circle cx="470" cy="70" r="8"/><circle cx="470" cy="120" r="8"/><circle cx="470" cy="170" r="8"/><circle cx="470" cy="220" r="8"/><circle cx="470" cy="270" r="8"/><circle cx="470" cy="320" r="8"/></g><path d="M145 210a38 38 0 1 1 0 54l40-27z" fill="#ffd91a"/><path d="M355 215c-28 0-40 20-40 48v40h80v-40c0-28-12-48-40-48z" fill="#ef3c43"/><circle cx="342" cy="250" r="9" fill="white"/><circle cx="368" cy="250" r="9" fill="white"/><circle cx="342" cy="250" r="4" fill="#112"/><circle cx="368" cy="250" r="4" fill="#112"/><text x="337" y="345" font-family="Arial,sans-serif" font-size="26" font-weight="700" fill="white">SCORE 0120</text></g></svg>